<?xml version="1.0" standalone="no"?>
<!DOCTYPE svg PUBLIC "-//W3C//DTD SVG 20010904//EN"
 "http://www.w3.org/TR/2001/REC-SVG-20010904/DTD/svg10.dtd">
<svg version="1.0" xmlns="http://www.w3.org/2000/svg"
 width="512.000000pt" height="512.000000pt" viewBox="0 0 512.000000 512.000000"
 preserveAspectRatio="xMidYMid meet">

<g transform="translate(0.000000,512.000000) scale(0.100000,-0.100000)"
fill="#000000" stroke="none">
<path d="M2495 4910 c-137 -31 -565 -128 -950 -215 -385 -86 -709 -161 -721
-165 -25 -10 -51 -44 -87 -115 -117 -233 -108 -507 26 -759 38 -71 51 -86 140
-154 68 -52 94 -78 85 -83 -8 -4 -128 -48 -267 -98 -139 -50 -260 -96 -268
-102 -32 -27 -7 -54 222 -235 229 -180 262 -214 280 -284 6 -25 -1 -29 -189
-119 -146 -70 -196 -99 -200 -115 -5 -17 16 -42 116 -138 119 -113 122 -117
98 -126 -276 -109 -765 -314 -771 -324 -32 -50 -4 -61 276 -103 l257 -39 24
-48 c122 -241 105 -489 -44 -637 -26 -25 -126 -94 -223 -153 -97 -59 -182
-114 -188 -122 -16 -19 -6 -53 17 -60 17 -6 287 -56 1447 -272 341 -63 825
-154 1075 -200 250 -47 487 -88 525 -90 91 -8 199 15 290 60 52 26 222 160
675 532 333 273 671 551 752 617 166 135 153 115 201 322 28 125 30 375 3 490
-27 118 -71 224 -128 312 -49 75 -50 78 -33 102 82 127 113 287 92 477 l-8 71
45 12 c47 11 65 36 49 66 -9 16 -250 190 -324 235 -53 32 -95 93 -114 166 -32
123 -9 253 81 454 l25 55 127 33 c194 49 200 51 207 71 7 24 -2 48 -23 56 -16
6 -344 103 -1773 524 -300 89 -552 160 -560 160 -8 -1 -126 -27 -264 -59z
m788 -181 c282 -83 755 -223 1052 -310 297 -87 547 -162 555 -165 8 -4 -104
-37 -250 -74 -1460 -371 -2179 -556 -2252 -581 l-87 -30 -188 124 c-531 350
-1158 769 -1158 774 0 5 1770 409 1803 412 7 1 244 -67 525 -150z m-1749 -757
c369 -244 675 -448 679 -452 4 -4 -6 -22 -23 -40 -70 -75 -102 -172 -101 -306
1 -237 89 -406 234 -449 92 -27 -91 -72 2152 525 l330 88 84 -61 85 -61 -45
-12 c-58 -15 -586 -150 -1074 -275 -214 -55 -619 -159 -900 -231 -567 -146
-604 -152 -715 -109 -42 15 -191 127 -600 447 -869 680 -764 590 -816 697 -62
131 -79 200 -78 337 0 92 4 130 23 190 30 97 68 173 83 164 6 -4 313 -207 682
-452z m3117 75 c-105 -245 -100 -464 14 -603 31 -37 33 -43 18 -48 -10 -3
-196 -52 -413 -110 -217 -58 -718 -190 -1112 -295 -395 -105 -734 -191 -755
-191 -119 1 -195 98 -223 285 -21 139 4 252 71 329 73 83 113 96 939 306 415
106 917 234 1115 285 198 50 361 91 363 90 1 -1 -6 -23 -17 -48z m-3026 -1112
c258 -202 486 -378 506 -391 67 -42 157 -66 244 -67 82 0 154 18 2279 565 148
38 271 67 273 64 3 -2 9 -37 14 -78 18 -132 -9 -269 -72 -373 l-32 -53 -1241
-488 c-683 -268 -1360 -534 -1506 -591 -146 -57 -274 -107 -285 -112 -18 -7
-97 64 -570 513 l-549 521 140 66 139 67 3 -27 c3 -26 -6 -58 -39 -139 l-14
-33 170 -167 c748 -736 737 -726 769 -664 73 142 61 379 -29 570 l-34 72 32
13 c18 8 87 35 154 61 120 46 139 61 128 97 -12 36 -43 31 -206 -32 -139 -54
-164 -61 -181 -50 -29 18 -1088 849 -1116 876 l-24 22 164 58 c90 32 204 73
253 90 l90 32 35 -27 c19 -15 246 -193 505 -395z m107 -824 c54 -108 81 -217
80 -331 -1 -168 34 -188 -402 237 -212 206 -384 380 -383 387 1 6 9 36 18 66
12 38 15 79 12 136 l-5 82 322 -252 321 -253 37 -72z m2818 274 c0 -2 -51 -43
-112 -91 -62 -49 -237 -185 -388 -303 -589 -460 -765 -597 -776 -604 -7 -4
-31 0 -55 9 -61 21 -104 30 -259 54 -74 11 -147 23 -162 26 -24 5 -9 15 115
79 78 40 189 97 247 127 58 30 186 97 285 148 99 51 225 116 280 145 55 29
195 101 310 160 116 59 244 126 285 148 60 33 217 106 228 107 1 0 2 -2 2 -5z
m-3446 -464 c124 -117 226 -214 226 -215 0 -1 -210 30 -467 70 -258 41 -505
79 -551 85 -46 7 -79 15 -75 19 4 4 123 53 263 110 140 56 280 113 310 126 30
13 58 22 62 21 4 -1 108 -98 232 -216z m-54 -266 c195 -30 368 -58 384 -61 19
-4 80 -55 175 -145 80 -76 154 -139 163 -139 10 0 111 37 225 82 l207 81 81
-11 c317 -44 814 -127 883 -148 171 -52 231 -161 232 -423 0 -191 -38 -282
-143 -335 -50 -26 -73 -31 -150 -34 -85 -3 -148 7 -827 138 -1007 193 -1445
277 -1575 302 -60 11 -111 22 -113 23 -2 2 13 24 33 50 136 179 146 401 31
666 -6 13 -2 16 16 13 13 -3 183 -29 378 -59z"/>
<path d="M1954 3504 c-84 -131 -123 -320 -94 -457 15 -74 84 -214 110 -222 27
-8 60 12 60 36 0 12 -10 34 -21 51 -42 58 -69 156 -69 249 0 106 23 187 80
281 45 75 46 80 24 102 -29 29 -52 19 -90 -40z"/>
<path d="M3590 3524 c-333 -78 -612 -147 -620 -152 -23 -14 -25 -59 -3 -71 14
-7 134 17 484 100 840 197 808 189 819 210 17 31 -4 59 -43 58 -18 -1 -304
-66 -637 -145z"/>
<path d="M2980 3185 c-245 -63 -462 -119 -482 -125 -45 -13 -59 -44 -31 -72
19 -19 25 -17 499 102 263 66 486 124 494 129 33 18 18 82 -19 80 -9 0 -216
-52 -461 -114z"/>
<path d="M1017 1383 c-12 -11 -7 -50 7 -62 8 -6 74 -21 147 -31 74 -11 195
-29 269 -40 74 -11 270 -40 435 -64 165 -24 461 -68 659 -97 258 -38 363 -50
375 -42 26 16 25 50 -1 66 -13 8 -135 30 -273 50 -137 20 -542 79 -899 132
-639 93 -706 102 -719 88z"/>
<path d="M1366 1044 c-19 -19 -21 -48 -3 -62 19 -16 939 -151 958 -141 20 10
30 34 23 54 -9 22 -41 28 -499 94 -231 34 -430 63 -442 66 -12 3 -28 -2 -37
-11z"/>
</g>
</svg>
